{"title":"[+18] Ragini MMS 2014 720p (Sunny Leone) - Makintos13","uid":11866494,"size":1502924938,"categoryP":"video","categoryS":"movies","magnet":"?xt=urn:btih:77e8b4db34d8ddb0b1ec0e958c5aacc6d5c69ec9&amp;dn=%5B%2B18%5D+Ragini+MMS+2014+720p+%28Sunny+Leone%29+-+Makintos13&amp;tr=udp%3A%2F%2Ftracker.openbittorrent.com%3A80&amp;tr=udp%3A%2F%2Fopen.demonii.com%3A1337&amp;tr=udp%3A%2F%2Ftracker.coppersurfer.tk%3A6969&amp;tr=udp%3A%2F%2Fexodus.desync.com%3A6969","seeders":3,"leechers":2,"uploader":"makintos13","files":1,"time":1430369658,"description":"[+18] Ragini MMS 2014 720p (Sunny Leone) - Makintos13\n &lt;a href=&quot;\nhttp://imgmak.com/image/m5&quot; rel=&quot;nofollow&quot; target=&quot;_NEW&quot;&gt;\nhttp://imgmak.com/image/m5&lt;/a&gt;\n &lt;a href=&quot;\nhttp://imgmak.com/image/m1&quot; rel=&quot;nofollow&quot; target=&quot;_NEW&quot;&gt;\nhttp://imgmak.com/image/m1&lt;/a&gt;\n &lt;a href=&quot;\nhttp://imgmak.com/image/mU&quot; rel=&quot;nofollow&quot; target=&quot;_NEW&quot;&gt;\nhttp://imgmak.com/image/mU&lt;/a&gt;\n &lt;a href=&quot;\nhttp://imgmak.com/image/m3&quot; rel=&quot;nofollow&quot; target=&quot;_NEW&quot;&gt;\nhttp://imgmak.com/image/m3&lt;/a&gt;\n &lt;a href=&quot;\nhttp://imgmak.com/image/mG&quot; rel=&quot;nofollow&quot; target=&quot;_NEW&quot;&gt;\nhttp://imgmak.com/image/mG&lt;/a&gt;\n &lt;a href=&quot;\nhttp://imgmak.com/image/mH&quot; rel=&quot;nofollow&quot; target=&quot;_NEW&quot;&gt;\nhttp://imgmak.com/image/mH&lt;/a&gt;\n &lt;a href=&quot;\nhttp://www.imdb.com/title/tt260921&quot; rel=&quot;nofollow&quot; target=&quot;_NEW&quot;&gt;\nhttp://www.imdb.com/title/tt260921&lt;/a&gt;\n\n\nGeneral\n\n\nFormat                                   : MPEG-4\nFormat profile                           : Base Media / Version 2\nCodec ID                                 : mp42\nFile size                                : 1.40 GiB\nDuration                                 : 1h 59mn\nOverall bit rate mode                    : Variable\nOverall bit rate                         : 1 679 Kbps\n\n\nVideo\nID                                       : 1\nFormat                                   : AVC\nFormat/Info                              : Advanced Video Codec\nFormat profile                           : Main@L4\nFormat settings, CABAC                   : Yes\nFormat settings, ReFrames                : 4 frames\nCodec ID                                 : avc1\nCodec ID/Info                            : Advanced Video Coding\nDuration                                 : 1h 59mn\nBit rate                                 : 1 512 Kbps\nWidth                                    : 1 280 pixels\nHeight                                   : 544 pixels\nDisplay aspect ratio                     : 2.35:1\nFrame rate mode                          : Variable\nFrame rate                               : 24.000 fps\nMinimum frame rate                       : 23.810 fps\nMaximum frame rate                       : 24.390 fps\nColor space                              : YUV\nChroma subsampling                       : 4:2:0\nBit depth                                : 8 bits\nScan type                                : Progressive\nBits/(Pixel*Frame)                       : 0.090\nStream size                              : 1.26 GiB (90%)\nColor primaries                          : BT.709\nTransfer characteristics                 : BT.709\nMatrix coefficients                      : BT.709\n\nAudio\nID                                       : 2\nFormat                                   : AAC\nFormat/Info                              : Advanced Audio Codec\nFormat profile                           : LC\nCodec ID                                 : 40\nDuration                                 : 1h 59mn\nBit rate mode                            : Variable\nBit rate                                 : 160 Kbps\nChannel(s)                               : 2 channels\nChannel positions                        : Front: L R\nSource                                   : Mafiaking\nSampling rate                            : 48.0 KHz\nCompression mode                         : Lossy\nStream size                              : 137 MiB (10%)\nTitle                                    : Stereo / Stereo\nLanguage                                 : Hindi","torrent":{"xt":"urn:btih:77e8b4db34d8ddb0b1ec0e958c5aacc6d5c69ec9","amp;dn":"%5B%2B18%5D+Ragini+MMS+2014+720p+%28Sunny+Leone%29+-+Makintos13","amp;tr":["udp%3A%2F%2Ftracker.openbittorrent.com%3A80","udp%3A%2F%2Fopen.demonii.com%3A1337","udp%3A%2F%2Ftracker.coppersurfer.tk%3A6969","udp%3A%2F%2Fexodus.desync.com%3A6969"],"infoHash":"77e8b4db34d8ddb0b1ec0e958c5aacc6d5c69ec9","infoHashBuffer":{"type":"Buffer","data":[119,232,180,219,52,216,221,176,177,236,14,149,140,90,172,198,213,198,158,201]},"announce":[],"urlList":[]}}